# File created by Blade
# Date/Time:  Mon Sep 22 19:00:17 2014
# Frame Rate: 120.000 fps
#------------------------------------------------------
:FULLY-SPECIFIED
:DEGREES
3481
root -0.910200 32.800885 -4.046190 41.942199 5.743261 1.536562
Spine -43.919386 -7.334230 5.574481
Head -3.113658 -6.825849 -8.332169
LeftShoulder -21.722640 39.976415 21.558842
LeftArm 35.675540 -47.782404 -33.507395
LeftForeArm 21.493598 -0.000000 7.044297
LeftHand -28.034154 -0.000000 8.992246
LeftHandThumb1 -26.253704 0.000000 33.147579
RightShoulder -25.487261 -38.146794 -30.502198
RightArm -320.531043 28.462139 -321.622480
RightForeArm 0.450372 -0.000000 0.054020
RightHand 11.411246 -0.000000 -0.435371
RightHandThumb1 -24.326973 -0.000000 -32.862282
LeftUpLeg -37.548899 4.865246 -1.108685
LeftLeg -0.385391 -0.000000 0.000000
LeftFoot -0.770864 -3.546057 -3.487362
LeftToeBase 2.199659 -0.000000 -0.000000
RightUpLeg -36.704387 -11.404861 6.211138
RightLeg -2.017104 -0.000000 0.000000
RightFoot -7.576621 -7.438311 20.110170
RightToeBase 16.201448 -0.000000 -0.000000
3482
root -0.904014 32.800846 -4.031353 41.927179 5.762833 1.554813
Spine -43.872614 -7.221085 5.557861
Head -3.149028 -6.791032 -8.468986
LeftShoulder -21.790933 39.910341 21.675231
LeftArm 35.259447 -47.935794 -33.279348
LeftForeArm 21.516469 0.000000 6.581647
LeftHand -27.972402 -0.000000 8.933868
LeftHandThumb1 -26.253704 0.000000 33.147579
RightShoulder -25.500091 -38.119566 -30.610925
RightArm -320.476919 29.021534 -320.866901
RightForeArm 0.674504 -0.000000 -0.788941
RightHand 10.752818 -0.000000 0.429396
RightHandThumb1 -24.326973 -0.000000 -32.862282
LeftUpLeg -37.506370 4.813497 -1.095183
LeftLeg -0.381965 -0.000000 0.000000
LeftFoot -0.779205 -3.532277 -3.511527
LeftToeBase 2.197686 -0.000000 -0.000000
RightUpLeg -36.664188 -11.448464 6.204375
RightLeg -2.010888 -0.000000 0.000000
RightFoot -7.599560 -7.450677 20.086392
RightToeBase 16.246031 -0.000000 -0.000000
3483
root -0.897552 32.801436 -4.018500 41.908868 5.759387 1.575334
Spine -43.822140 -7.111347 5.544488
Head -3.182687 -6.773978 -8.611043
LeftShoulder -21.914792 39.900848 21.670903
LeftArm 34.837134 -48.052175 -32.930575
LeftForeArm 21.386122 -0.000000 6.035674
LeftHand -27.873092 -0.000000 8.831106
LeftHandThumb1 -26.253704 0.000000 33.147579
RightShoulder -25.565097 -38.165900 -30.706590
RightArm -320.221113 29.738726 -319.885894
RightForeArm 0.548252 0.000000 -1.637820
RightHand 10.416095 -0.000000 1.120279
RightHandThumb1 -24.326973 -0.000000 -32.862282
LeftUpLeg -37.460491 4.760565 -1.087369
LeftLeg -0.379697 -0.000000 0.000000
LeftFoot -0.779301 -3.485662 -3.509956
LeftToeBase 2.166706 -0.000000 -0.000000
RightUpLeg -36.622314 -11.467051 6.171677
RightLeg -2.009957 -0.000000 0.000000
RightFoot -7.612376 -7.456930 20.094072
RightToeBase 16.208991 -0.000000 -0.000000
3484
root -0.890444 32.801267 -4.005258 41.888383 5.764147 1.591299
Spine -43.761705 -7.004920 5.536045
Head -3.235522 -6.764158 -8.719302
LeftShoulder -22.062749 39.936300 21.649739
LeftArm 34.484574 -48.148868 -32.649898
LeftForeArm 21.379433 -0.000000 5.456041
LeftHand -27.728001 -0.000000 8.603590
LeftHandThumb1 -26.253704 0.000000 33.147579
RightShoulder -25.614287 -38.159066 -30.802064
RightArm -320.111674 30.170301 -319.210108
RightForeArm 0.611739 -0.000000 -2.504029
RightHand 10.055336 -0.000000 1.884300
RightHandThumb1 -24.326973 -0.000000 -32.862282
LeftUpLeg -37.410857 4.709270 -1.073244
LeftLeg -0.380623 -0.000000 0.000000
LeftFoot -0.785811 -3.460221 -3.528601
LeftToeBase 2.170534 -0.000000 -0.000000
RightUpLeg -36.574659 -11.498355 6.154290
RightLeg -2.016800 -0.000000 0.000000
RightFoot -7.621158 -7.449991 20.073418
RightToeBase 16.227063 -0.000000 -0.000000
3485
root -0.881398 32.801611 -3.993281 41.882047 5.764589 1.627896
Spine -43.723392 -6.906835 5.512683
Head -3.269939 -6.704852 -8.851975
LeftShoulder -22.124113 39.837178 21.769955
LeftArm 34.101626 -48.118874 -32.472711
LeftForeArm 21.361665 -0.000000 4.854927
LeftHand -27.459891 -0.000000 8.436589
LeftHandThumb1 -26.253704 0.000000 33.147579
RightShoulder -25.624008 -38.138919 -30.909160
RightArm -320.101711 30.645410 -318.555628
RightForeArm 0.368785 0.000000 -3.258052
RightHand 9.743187 -0.000000 2.659891
RightHandThumb1 -24.326973 -0.000000 -32.862282
LeftUpLeg -37.345753 4.579832 -1.033205
LeftLeg -0.436819 -0.000000 0.000000
LeftFoot -0.751779 -3.331676 -3.546146
LeftToeBase 2.153267 -0.000000 -0.000000
RightUpLeg -36.543461 -11.547045 6.122646
RightLeg -2.023305 -0.000000 0.000000
RightFoot -7.639444 -7.451917 20.057322
RightToeBase 16.220423 -0.000000 -0.000000
